<svg id="Layer_1" data-name="Layer 1" xmlns="http://www.w3.org/2000/svg" viewBox="0 0 40.4 48.02"><defs><style>.cls-1{fill:#ef3349;}</style></defs><path class="cls-1" d="M32.7,9.8a13.1,13.1,0,0,0-5.2,1.1A9.65,9.65,0,0,1,34.6,4a1,1,0,0,0,.8-1.2A1,1,0,0,0,34.2,2C28,3.3,26,8.6,25.3,11.2a13.9,13.9,0,0,0-6-1.4A13.53,13.53,0,0,0,5.8,23.4C5.8,30,11.2,50,19.3,50A13.2,13.2,0,0,0,26,48.2,12.94,12.94,0,0,0,32.7,50c8.1,0,13.5-20,13.5-26.6A13.59,13.59,0,0,0,32.7,9.8ZM21.8,16.7c-2.8-.5-5-.2-6.6,1.1-2.7,2.1-2.9,6-2.9,6a.9.9,0,0,1-1.1.9.9.9,0,0,1-.9-1.1c0-.2.3-4.8,3.7-7.5,2.1-1.6,4.9-2.1,8.2-1.5a1,1,0,0,1,.8,1.2A1.06,1.06,0,0,1,21.8,16.7Z" transform="translate(-5.8 -1.98)"/></svg>