<svg id="Capa_1" data-name="Capa 1" xmlns="http://www.w3.org/2000/svg" viewBox="0 0 32 32"><defs><style>.cls-1,.cls-2{fill:#e8384b;}.cls-1{opacity:0;}</style></defs><rect class="cls-1" width="32" height="32"/><path class="cls-2" d="M19.89,7.46a8.19,8.19,0,0,0-3,.58A5.38,5.38,0,0,1,21,4.4a.54.54,0,0,0,.47-.59V3.76a.58.58,0,0,0-.67-.42h0A6.55,6.55,0,0,0,15.59,8.2a8.5,8.5,0,0,0-3.48-.74c-4.33,0-7.84,3.21-7.83,7.15v0c0,3.48,3.13,14,7.83,14a8.23,8.23,0,0,0,3.89-1,8,8,0,0,0,3.89,1c4.7,0,7.83-10.55,7.83-14C27.72,10.69,24.22,7.48,19.89,7.46ZM13.56,11.1a4.94,4.94,0,0,0-3.83.58,4.56,4.56,0,0,0-1.68,3.17.5.5,0,0,1-.5.48H7.42a.51.51,0,0,1-.54-.46.5.5,0,0,1,0-.12,5.64,5.64,0,0,1,2.14-4A6.37,6.37,0,0,1,13.8,10a.52.52,0,0,1,.47.59v0a.62.62,0,0,1-.7.48Z" transform="translate(0 0)"/></svg>