<svg id="Capa_1" data-name="Capa 1" xmlns="http://www.w3.org/2000/svg" viewBox="0 0 512 512"><defs><style>.cls-1{fill:#d14454;}</style></defs><path class="cls-1" d="M184,0a56,56,0,0,1,56,56V456a56,56,0,0,1-111.7,5.9A62.8,62.8,0,0,1,112,464a64,64,0,0,1-60.4-85.2,80,80,0,0,1-5.8-147.1A63.34,63.34,0,0,1,32,192a64.13,64.13,0,0,1,50.4-62.6A62.5,62.5,0,0,1,80,112a64.16,64.16,0,0,1,48.3-62.1A56,56,0,0,1,184,0ZM328,0a56.1,56.1,0,0,1,55.7,49.9A64,64,0,0,1,432,112a62.5,62.5,0,0,1-2.4,17.4A64,64,0,0,1,480,192a63.34,63.34,0,0,1-13.8,39.7,80,80,0,0,1-5.8,147.1A64,64,0,0,1,400,464a62.8,62.8,0,0,1-16.3-2.1A56,56,0,0,1,272,456V56A56,56,0,0,1,328,0Z"/></svg>